<?xml version="1.0" encoding="utf-8"?>
<!-- Generator: Adobe Illustrator 24.1.1, SVG Export Plug-In . SVG Version: 6.00 Build 0)  -->
<svg version="1.1" id="Layer_1" xmlns="http://www.w3.org/2000/svg" xmlns:xlink="http://www.w3.org/1999/xlink" x="0px" y="0px"
	 viewBox="0 0 143.3 136.7" style="enable-background:new 0 0 143.3 136.7;" xml:space="preserve">
<style type="text/css">
	.st0{fill:#FFFFFF;}
	.st1{clip-path:url(#SVGID_2_);fill:none;stroke:#5F6368;stroke-width:0.7906;stroke-miterlimit:10;}
	.st2{clip-path:url(#SVGID_2_);fill:#FFFFFF;}
	.st3{clip-path:url(#SVGID_2_);fill:#5F6368;}
	.st4{fill:#4284F4;}
	.st5{fill:#34A853;}
	.st6{fill:#FBBC04;}
	.st7{fill:#EA4335;}
	.st8{clip-path:url(#SVGID_4_);fill:none;stroke:#5F6368;stroke-width:0.7896;stroke-miterlimit:10;}
	.st9{fill:#5F6368;}
</style>
<g>
	<path class="st0" d="M139.7,136.3H3.6c-1.7,0-3.2-1.4-3.2-3.2V3.6c0-1.7,1.4-3.2,3.2-3.2h136.1c1.7,0,3.2,1.4,3.2,3.2v129.6
		C142.8,134.9,141.4,136.3,139.7,136.3L139.7,136.3z"/>
	<g>
		<defs>
			<rect id="SVGID_1_" width="143.3" height="136.7"/>
		</defs>
		<clipPath id="SVGID_2_">
			<use xlink:href="#SVGID_1_"  style="overflow:visible;"/>
		</clipPath>
		<path class="st1" d="M139.7,136.3H3.6c-1.7,0-3.2-1.4-3.2-3.2V3.6c0-1.7,1.4-3.2,3.2-3.2h136.1c1.7,0,3.2,1.4,3.2,3.2v129.6
			C142.8,134.9,141.4,136.3,139.7,136.3L139.7,136.3z"/>
		<path class="st2" d="M139.7,136.3H3.6c-1.7,0-3.2-1.4-3.2-3.2V3.6c0-1.7,1.4-3.2,3.2-3.2h136.2c1.7,0,3.2,1.4,3.2,3.2v129.6
			C142.9,134.9,141.5,136.3,139.7,136.3L139.7,136.3z"/>
		<path class="st3" d="M0.4,108.6v22.9c0,3.5,1.2,4.9,4.9,4.9H138c3.9,0,5.7,0,4.9-4.9v-22.9H0.4L0.4,108.6z"/>
	</g>
	<path class="st4" d="M92.7,43.7c0-1.5-0.2-3-0.5-4.4H72.1v8.3h11.3c-0.5,2.7-1.8,5-4.1,6.5v5.4h7C90.4,55.8,92.7,50.3,92.7,43.7
		L92.7,43.7z"/>
	<path class="st5" d="M72.1,64.8c5.8,0,10.7-1.9,14.3-5.2l-7-5.4c-1.9,1.3-4.4,2.1-7.3,2.1c-5.6,0-10.4-3.8-12.1-8.9h-7.2v5.6
		C56.4,59.9,63.7,64.8,72.1,64.8L72.1,64.8z"/>
	<path class="st6" d="M60,47.3c-0.4-1.3-0.7-2.7-0.7-4.1c0-1.4,0.2-2.8,0.7-4.1v-5.6h-7.2c-1.5,2.9-2.3,6.2-2.3,9.7
		c0,3.5,0.8,6.8,2.3,9.7L60,47.3L60,47.3z"/>
	<path class="st7" d="M72.1,30.2c3.2,0,6,1.1,8.2,3.2l6.2-6.2c-3.7-3.5-8.6-5.6-14.4-5.6c-8.4,0-15.7,4.8-19.2,11.9l7.2,5.6
		C61.7,34,66.5,30.2,72.1,30.2L72.1,30.2z"/>
	<g>
		<defs>
			<rect id="SVGID_3_" width="143.3" height="136.7"/>
		</defs>
		<clipPath id="SVGID_4_">
			<use xlink:href="#SVGID_3_"  style="overflow:visible;"/>
		</clipPath>
		<path class="st8" d="M139.7,136.3H3.6c-1.7,0-3.2-1.4-3.2-3.2V3.6c0-1.7,1.4-3.2,3.2-3.2h136.2c1.7,0,3.2,1.4,3.2,3.2v129.6
			C142.9,134.9,141.5,136.3,139.7,136.3L139.7,136.3z"/>
	</g>
</g>
<g id="Layer_3">
	<g>
		<g>
			<path class="st9" d="M25.9,87.1c-0.8-0.5-1.5-1.1-1.9-1.9c-0.5-0.8-0.7-1.7-0.7-2.7s0.2-1.9,0.7-2.7s1.1-1.5,1.9-1.9
				c0.8-0.5,1.7-0.7,2.7-0.7c0.8,0,1.5,0.1,2.1,0.4c0.7,0.3,1.2,0.6,1.6,1.1l-0.9,0.9c-0.3-0.4-0.7-0.7-1.2-0.9
				c-0.5-0.2-1-0.3-1.6-0.3c-0.7,0-1.4,0.2-2,0.5c-0.6,0.3-1.1,0.8-1.5,1.5c-0.4,0.6-0.6,1.4-0.6,2.2s0.2,1.6,0.6,2.2
				s0.9,1.1,1.5,1.5c0.6,0.3,1.3,0.5,2,0.5c0.7,0,1.3-0.1,1.7-0.3c0.5-0.2,0.9-0.5,1.2-0.9c0.2-0.3,0.4-0.6,0.6-1
				c0.2-0.4,0.2-0.8,0.3-1.3h-3.8v-1.1h4.9c0,0.3,0.1,0.5,0.1,0.7c0,0.6-0.1,1.2-0.3,1.8s-0.5,1.1-1,1.6c-0.9,1-2.2,1.5-3.8,1.5
				C27.6,87.8,26.7,87.6,25.9,87.1z"/>
			<path class="st9" d="M28.6,88c-1,0-1.9-0.2-2.7-0.7l0,0c-0.8-0.5-1.5-1.1-2-2c-0.5-0.8-0.7-1.8-0.7-2.8c0-1,0.2-1.9,0.7-2.8
				c0.5-0.8,1.1-1.5,2-2c0.8-0.5,1.7-0.7,2.7-0.7c0.8,0,1.5,0.1,2.2,0.4c0.7,0.3,1.2,0.7,1.7,1.2l0.1,0.1l-1.1,1.1l-0.1-0.1
				c-0.3-0.4-0.7-0.7-1.2-0.9c-0.5-0.2-1-0.3-1.6-0.3c-0.7,0-1.4,0.2-2,0.5c-0.6,0.3-1.1,0.8-1.5,1.4c-0.4,0.6-0.5,1.3-0.5,2.1
				c0,0.8,0.2,1.5,0.5,2.1c0.4,0.6,0.9,1.1,1.5,1.4c0.6,0.3,1.3,0.5,2,0.5c0.7,0,1.2-0.1,1.7-0.3c0.4-0.2,0.8-0.5,1.2-0.8
				c0.2-0.3,0.4-0.6,0.6-0.9c0.1-0.3,0.2-0.7,0.3-1.1h-3.8V82h5.1l0,0.1c0,0.3,0.1,0.5,0.1,0.8c0,0.6-0.1,1.3-0.3,1.9
				c-0.2,0.6-0.5,1.2-1,1.6C31.5,87.4,30.2,88,28.6,88z M28.6,77.3c-0.9,0-1.8,0.2-2.6,0.7c-0.8,0.5-1.4,1.1-1.9,1.9
				c-0.5,0.8-0.7,1.7-0.7,2.7c0,1,0.2,1.9,0.7,2.7c0.5,0.8,1.1,1.4,1.9,1.9l0,0c0.8,0.5,1.7,0.7,2.6,0.7c1.5,0,2.8-0.5,3.7-1.5
				c0.4-0.4,0.7-0.9,0.9-1.5c0.2-0.6,0.3-1.2,0.3-1.8c0-0.2,0-0.4-0.1-0.6h-4.7v0.9h3.8l0,0.1c0,0.5-0.1,0.9-0.3,1.3
				c-0.2,0.4-0.4,0.7-0.6,1c-0.3,0.4-0.8,0.7-1.2,0.9c-0.5,0.2-1.1,0.3-1.8,0.3c-0.7,0-1.4-0.2-2.1-0.5c-0.6-0.4-1.2-0.9-1.6-1.5
				c-0.4-0.7-0.6-1.4-0.6-2.3c0-0.8,0.2-1.6,0.6-2.3c0.4-0.6,0.9-1.2,1.5-1.5c0.6-0.4,1.3-0.5,2.1-0.5c0.6,0,1.2,0.1,1.7,0.3
				c0.5,0.2,0.9,0.5,1.2,0.9l0.7-0.7c-0.4-0.4-0.9-0.8-1.5-1C30,77.4,29.3,77.3,28.6,77.3z"/>
		</g>
		<g>
			<path class="st9" d="M36.6,87.3c-0.6-0.3-1-0.8-1.3-1.4c-0.3-0.6-0.5-1.2-0.5-2s0.2-1.4,0.5-2c0.3-0.6,0.8-1.1,1.3-1.4
				c0.6-0.3,1.2-0.5,1.9-0.5s1.4,0.2,1.9,0.5c0.6,0.3,1,0.8,1.3,1.4c0.3,0.6,0.5,1.2,0.5,2s-0.2,1.4-0.5,2c-0.3,0.6-0.8,1.1-1.3,1.4
				c-0.6,0.3-1.2,0.5-1.9,0.5S37.2,87.7,36.6,87.3z M39.8,86.4c0.4-0.2,0.7-0.5,0.9-1c0.2-0.4,0.4-0.9,0.4-1.5s-0.1-1.1-0.4-1.5
				c-0.2-0.4-0.5-0.7-0.9-1c-0.4-0.2-0.8-0.3-1.3-0.3c-0.4,0-0.9,0.1-1.3,0.3c-0.4,0.2-0.7,0.5-0.9,1C36.1,82.9,36,83.4,36,84
				s0.1,1.1,0.4,1.5c0.2,0.4,0.5,0.7,0.9,1c0.4,0.2,0.8,0.3,1.3,0.3C39,86.7,39.4,86.6,39.8,86.4z"/>
			<path class="st9" d="M38.5,88c-0.7,0-1.4-0.2-2-0.5c-0.6-0.4-1.1-0.8-1.4-1.4c-0.3-0.6-0.5-1.3-0.5-2c0-0.7,0.2-1.4,0.5-2
				s0.8-1.1,1.4-1.4c0.6-0.4,1.3-0.5,2-0.5s1.4,0.2,2,0.5c0.6,0.4,1.1,0.8,1.4,1.4c0.3,0.6,0.5,1.3,0.5,2c0,0.7-0.2,1.4-0.5,2
				c-0.3,0.6-0.8,1.1-1.4,1.4C39.9,87.8,39.3,88,38.5,88z M38.5,80.2c-0.7,0-1.3,0.2-1.9,0.5s-1,0.8-1.3,1.4
				c-0.3,0.6-0.5,1.2-0.5,1.9c0,0.7,0.2,1.3,0.5,1.9c0.3,0.6,0.7,1,1.3,1.4l0,0c0.5,0.3,1.2,0.5,1.9,0.5c0.7,0,1.3-0.2,1.9-0.5
				c0.5-0.3,1-0.8,1.3-1.4c0.3-0.6,0.5-1.2,0.5-1.9c0-0.7-0.2-1.3-0.5-1.9c-0.3-0.6-0.7-1-1.3-1.4S39.2,80.2,38.5,80.2z M38.5,86.9
				c-0.5,0-0.9-0.1-1.3-0.4c-0.4-0.2-0.7-0.6-1-1c-0.2-0.4-0.4-1-0.4-1.5c0-0.6,0.1-1.1,0.4-1.5c0.2-0.4,0.6-0.8,1-1
				c0.8-0.5,1.8-0.5,2.6,0c0.4,0.2,0.7,0.6,1,1c0.2,0.4,0.4,1,0.4,1.5c0,0.6-0.1,1.1-0.4,1.5c-0.2,0.4-0.6,0.8-1,1h0
				C39.4,86.8,39,86.9,38.5,86.9z M38.5,81.3c-0.4,0-0.8,0.1-1.2,0.3c-0.4,0.2-0.7,0.5-0.9,0.9c-0.2,0.4-0.3,0.9-0.3,1.4
				c0,0.5,0.1,1,0.3,1.4c0.2,0.4,0.5,0.7,0.9,0.9c0.7,0.4,1.7,0.4,2.4,0l0,0c0.4-0.2,0.7-0.5,0.9-0.9c0.2-0.4,0.3-0.9,0.3-1.4
				c0-0.5-0.1-1-0.3-1.4c-0.2-0.4-0.5-0.7-0.9-0.9C39.4,81.4,39,81.3,38.5,81.3z"/>
		</g>
		<g>
			<path class="st9" d="M45.1,87.3c-0.6-0.3-1-0.8-1.3-1.4c-0.3-0.6-0.5-1.2-0.5-2s0.2-1.4,0.5-2c0.3-0.6,0.8-1.1,1.3-1.4
				c0.6-0.3,1.2-0.5,1.9-0.5s1.4,0.2,1.9,0.5c0.6,0.3,1,0.8,1.3,1.4c0.3,0.6,0.5,1.2,0.5,2s-0.2,1.4-0.5,2C50,86.5,49.5,87,49,87.3
				c-0.6,0.3-1.2,0.5-1.9,0.5S45.7,87.7,45.1,87.3z M48.3,86.4c0.4-0.2,0.7-0.5,0.9-1c0.2-0.4,0.4-0.9,0.4-1.5s-0.1-1.1-0.4-1.5
				c-0.2-0.4-0.5-0.7-0.9-1c-0.4-0.2-0.8-0.3-1.3-0.3c-0.4,0-0.9,0.1-1.3,0.3c-0.4,0.2-0.7,0.5-0.9,1c-0.2,0.4-0.4,0.9-0.4,1.5
				s0.1,1.1,0.4,1.5c0.2,0.4,0.5,0.7,0.9,1c0.4,0.2,0.8,0.3,1.3,0.3C47.5,86.7,47.9,86.6,48.3,86.4z"/>
			<path class="st9" d="M47,88c-0.7,0-1.4-0.2-2-0.5c-0.6-0.4-1.1-0.8-1.4-1.4c-0.3-0.6-0.5-1.3-0.5-2c0-0.7,0.2-1.4,0.5-2
				s0.8-1.1,1.4-1.4c0.6-0.4,1.3-0.5,2-0.5s1.4,0.2,2,0.5c0.6,0.4,1.1,0.8,1.4,1.4c0.3,0.6,0.5,1.3,0.5,2c0,0.7-0.2,1.4-0.5,2
				c-0.3,0.6-0.8,1.1-1.4,1.4C48.4,87.8,47.8,88,47,88z M47,80.2c-0.7,0-1.3,0.2-1.9,0.5s-1,0.8-1.3,1.4c-0.3,0.6-0.5,1.2-0.5,1.9
				c0,0.7,0.2,1.3,0.5,1.9c0.3,0.6,0.7,1,1.3,1.4l0,0c0.5,0.3,1.2,0.5,1.9,0.5c0.7,0,1.3-0.2,1.9-0.5c0.5-0.3,1-0.8,1.3-1.4
				c0.3-0.6,0.5-1.2,0.5-1.9c0-0.7-0.2-1.3-0.5-1.9c-0.3-0.6-0.7-1-1.3-1.4S47.7,80.2,47,80.2z M47,86.9c-0.5,0-0.9-0.1-1.3-0.4
				c-0.4-0.2-0.7-0.6-1-1c-0.2-0.4-0.4-1-0.4-1.5c0-0.6,0.1-1.1,0.4-1.5c0.2-0.4,0.6-0.8,1-1c0.8-0.5,1.8-0.5,2.6,0
				c0.4,0.2,0.7,0.6,1,1c0.2,0.4,0.4,1,0.4,1.5c0,0.6-0.1,1.1-0.4,1.5c-0.2,0.4-0.6,0.8-1,1h0C47.9,86.8,47.5,86.9,47,86.9z
				 M47,81.3c-0.4,0-0.8,0.1-1.2,0.3c-0.4,0.2-0.7,0.5-0.9,0.9c-0.2,0.4-0.3,0.9-0.3,1.4c0,0.5,0.1,1,0.3,1.4
				c0.2,0.4,0.5,0.7,0.9,0.9c0.7,0.4,1.7,0.4,2.4,0l0,0c0.4-0.2,0.7-0.5,0.9-0.9c0.2-0.4,0.3-0.9,0.3-1.4c0-0.5-0.1-1-0.3-1.4
				c-0.2-0.4-0.5-0.7-0.9-0.9C47.9,81.4,47.5,81.3,47,81.3z"/>
		</g>
		<g>
			<path class="st9" d="M53.3,90.3c-0.6-0.4-0.9-0.9-1.1-1.4l1.1-0.5c0.2,0.4,0.4,0.8,0.8,1c0.4,0.3,0.8,0.4,1.3,0.4
				c0.8,0,1.3-0.2,1.8-0.6c0.4-0.4,0.6-1,0.6-1.8v-0.8h-0.1c-0.2,0.4-0.6,0.7-1,0.9c-0.4,0.2-0.9,0.3-1.5,0.3
				c-0.6,0-1.2-0.2-1.7-0.5C53,87,52.6,86.6,52.3,86c-0.3-0.6-0.5-1.3-0.5-2c0-0.7,0.2-1.4,0.5-2s0.7-1.1,1.2-1.4
				c0.5-0.3,1.1-0.5,1.7-0.5c0.6,0,1,0.1,1.5,0.4c0.4,0.2,0.8,0.5,1,0.9h0.1v-1h1.2v7c0,1.2-0.3,2.1-1,2.7c-0.6,0.6-1.5,0.9-2.6,0.9
				C54.5,90.9,53.8,90.7,53.3,90.3z M56.6,86.4c0.4-0.2,0.6-0.5,0.9-1c0.2-0.4,0.3-0.9,0.3-1.5c0-0.6-0.1-1.1-0.3-1.5
				c-0.2-0.4-0.5-0.7-0.9-1s-0.8-0.3-1.2-0.3s-0.8,0.1-1.2,0.3s-0.7,0.5-0.9,1C53.1,82.9,53,83.4,53,84s0.1,1.1,0.3,1.5
				c0.2,0.4,0.5,0.7,0.9,1s0.8,0.3,1.2,0.3S56.2,86.6,56.6,86.4z"/>
			<path class="st9" d="M55.4,91.1c-0.9,0-1.6-0.2-2.2-0.6c-0.6-0.4-1-0.9-1.2-1.5l0-0.1l1.3-0.6l0,0.1c0.2,0.4,0.4,0.7,0.8,1
				c0.4,0.2,0.8,0.4,1.3,0.4c0.7,0,1.3-0.2,1.7-0.6c0.4-0.4,0.6-1,0.6-1.7v-0.5c-0.2,0.3-0.5,0.5-0.9,0.7c-0.4,0.2-1,0.4-1.5,0.4
				c-0.6,0-1.3-0.2-1.8-0.5s-1-0.8-1.3-1.4c-0.3-0.6-0.5-1.3-0.5-2.1c0-0.8,0.2-1.5,0.5-2.1c0.3-0.6,0.7-1.1,1.3-1.4
				c0.5-0.3,1.1-0.5,1.8-0.5c0.6,0,1.1,0.1,1.5,0.4c0.4,0.2,0.7,0.4,0.9,0.7v-0.9H59v7.1c0,1.2-0.3,2.1-1,2.8
				C57.4,90.7,56.5,91.1,55.4,91.1z M52.3,89c0.2,0.5,0.5,0.9,1,1.3c0.5,0.4,1.2,0.6,2.1,0.6c1,0,1.9-0.3,2.5-0.9
				c0.6-0.6,0.9-1.5,0.9-2.6v-6.9h-0.9v1h-0.3l0-0.1c-0.2-0.4-0.5-0.7-1-0.9c-0.4-0.2-0.9-0.3-1.4-0.3c-0.6,0-1.2,0.2-1.7,0.5
				c-0.5,0.3-0.9,0.8-1.2,1.3c-0.3,0.6-0.4,1.2-0.4,1.9c0,0.7,0.1,1.4,0.4,2c0.3,0.6,0.7,1,1.2,1.3c0.5,0.3,1.1,0.5,1.7,0.5
				c0.5,0,1-0.1,1.4-0.3s0.7-0.5,1-0.9l0-0.1h0.3v0.9c0,0.8-0.2,1.4-0.7,1.9c-0.4,0.4-1.1,0.7-1.8,0.7c-0.5,0-1-0.1-1.4-0.4
				c-0.4-0.3-0.6-0.6-0.8-1L52.3,89z M55.4,86.9c-0.5,0-0.9-0.1-1.3-0.3c-0.4-0.2-0.7-0.6-0.9-1c-0.2-0.4-0.3-1-0.3-1.5
				s0.1-1.1,0.3-1.5c0.2-0.4,0.5-0.8,0.9-1c0.4-0.2,0.8-0.4,1.3-0.4c0.5,0,0.9,0.1,1.3,0.3c0.4,0.2,0.7,0.6,0.9,1
				c0.2,0.4,0.3,1,0.3,1.6c0,0.6-0.1,1.1-0.3,1.5c-0.2,0.4-0.5,0.8-0.9,1C56.3,86.8,55.8,86.9,55.4,86.9z M55.4,81.3
				c-0.4,0-0.8,0.1-1.1,0.3c-0.3,0.2-0.6,0.5-0.8,0.9c-0.2,0.4-0.3,0.9-0.3,1.4s0.1,1,0.3,1.4c0.2,0.4,0.5,0.7,0.8,0.9
				c0.3,0.2,0.7,0.3,1.1,0.3c0.4,0,0.8-0.1,1.1-0.3c0.3-0.2,0.6-0.5,0.8-0.9c0.2-0.4,0.3-0.9,0.3-1.4c0-0.6-0.1-1-0.3-1.4
				c-0.2-0.4-0.5-0.7-0.8-0.9C56.2,81.4,55.8,81.3,55.4,81.3z"/>
		</g>
		<g>
			<path class="st9" d="M60.7,77.4h1.2v10.2h-1.2V77.4z"/>
			<path class="st9" d="M62,87.7h-1.5V77.3H62V87.7z M60.8,87.5h1v-10h-1V87.5z"/>
		</g>
		<g>
			<path class="st9" d="M65.1,87.3c-0.6-0.3-1-0.8-1.3-1.4c-0.3-0.6-0.5-1.2-0.5-2c0-0.7,0.1-1.4,0.4-1.9c0.3-0.6,0.7-1.1,1.2-1.4
				c0.5-0.4,1.2-0.5,1.9-0.5c0.7,0,1.3,0.2,1.9,0.5c0.5,0.3,0.9,0.8,1.2,1.3s0.4,1.2,0.4,1.9c0,0.1,0,0.3,0,0.4h-5.8
				c0,0.6,0.2,1,0.4,1.4c0.2,0.4,0.5,0.7,0.9,0.9c0.4,0.2,0.8,0.3,1.2,0.3c0.9,0,1.7-0.4,2.2-1.3l1,0.5c-0.3,0.6-0.7,1.1-1.3,1.4
				c-0.5,0.3-1.2,0.5-2,0.5C66.3,87.8,65.7,87.7,65.1,87.3z M69.1,83.2c0-0.3-0.1-0.6-0.3-0.9c-0.2-0.3-0.4-0.6-0.7-0.8
				c-0.3-0.2-0.7-0.3-1.2-0.3c-0.6,0-1.1,0.2-1.5,0.5c-0.4,0.4-0.7,0.9-0.8,1.5H69.1z"/>
			<path class="st9" d="M67,88c-0.7,0-1.4-0.2-1.9-0.5l0,0c-0.6-0.3-1-0.8-1.3-1.4c-0.3-0.6-0.5-1.3-0.5-2c0-0.7,0.2-1.4,0.4-2
				c0.3-0.6,0.7-1.1,1.3-1.5c0.6-0.4,1.2-0.5,1.9-0.5c0.7,0,1.4,0.2,1.9,0.5c0.5,0.3,1,0.8,1.3,1.4c0.3,0.6,0.4,1.2,0.4,2
				c0,0.2,0,0.3,0,0.4l0,0.1h-5.7c0,0.5,0.2,0.9,0.4,1.2c0.2,0.4,0.5,0.6,0.9,0.8c0.3,0.2,0.7,0.3,1.1,0.3c0.9,0,1.6-0.4,2.1-1.3
				l0.1-0.1l1.3,0.6L70.3,86c-0.3,0.6-0.8,1.1-1.3,1.4C68.4,87.8,67.8,88,67,88z M65.2,87.2c0.5,0.3,1.1,0.5,1.8,0.5
				c0.7,0,1.4-0.2,1.9-0.5c0.5-0.3,0.9-0.7,1.2-1.2l-0.8-0.4c-0.5,0.8-1.3,1.3-2.2,1.3c-0.4,0-0.8-0.1-1.2-0.3
				c-0.4-0.2-0.7-0.5-1-0.9c-0.2-0.4-0.4-0.9-0.4-1.5l0-0.1h5.8c0-0.1,0-0.2,0-0.2c0-0.7-0.1-1.3-0.4-1.9c-0.3-0.5-0.7-1-1.2-1.3
				c-0.5-0.3-1.1-0.5-1.8-0.5c-0.7,0-1.3,0.2-1.8,0.5c-0.5,0.3-0.9,0.8-1.2,1.4c-0.3,0.6-0.4,1.2-0.4,1.9c0,0.7,0.2,1.4,0.5,1.9
				C64.2,86.5,64.6,86.9,65.2,87.2L65.2,87.2z M69.2,83.3h-4.7l0-0.2c0.1-0.6,0.4-1.1,0.8-1.5c0.4-0.4,0.9-0.6,1.5-0.6
				c0.5,0,1,0.1,1.3,0.3c0.3,0.2,0.6,0.5,0.8,0.8c0.2,0.3,0.3,0.6,0.3,1L69.2,83.3z M64.8,83.1h4.2c0-0.2-0.1-0.5-0.2-0.7
				c-0.1-0.3-0.4-0.5-0.7-0.7s-0.7-0.3-1.2-0.3c-0.5,0-1,0.2-1.4,0.5C65.1,82.2,64.9,82.6,64.8,83.1z"/>
		</g>
		<g>
			<path class="st9" d="M74.8,77.4h3.4c0.6,0,1.1,0.1,1.6,0.4c0.5,0.3,0.9,0.6,1.2,1.1c0.3,0.5,0.4,1,0.4,1.6c0,0.6-0.1,1.1-0.4,1.6
				c-0.3,0.5-0.7,0.8-1.2,1.1c-0.5,0.3-1,0.4-1.6,0.4H76v4.2h-1.2V77.4z M78.2,82.3c0.4,0,0.7-0.1,1-0.3c0.3-0.2,0.5-0.4,0.7-0.7
				s0.2-0.6,0.2-0.9s-0.1-0.6-0.2-0.9s-0.4-0.5-0.7-0.7c-0.3-0.2-0.6-0.3-1-0.3H76v3.7H78.2z"/>
			<path class="st9" d="M76.1,87.7h-1.5V77.3h3.6c0.6,0,1.1,0.1,1.6,0.4c0.5,0.3,0.9,0.6,1.2,1.1c0.3,0.5,0.5,1,0.5,1.6
				s-0.2,1.2-0.5,1.6c-0.3,0.5-0.7,0.9-1.2,1.1c-0.5,0.3-1.1,0.4-1.6,0.4h-2.1V87.7z M74.9,87.5h1v-4.2h2.4c0.5,0,1.1-0.1,1.5-0.4
				c0.5-0.2,0.8-0.6,1.1-1c0.3-0.4,0.4-0.9,0.4-1.5s-0.1-1.1-0.4-1.5c-0.3-0.4-0.7-0.8-1.1-1c-0.5-0.2-1-0.4-1.5-0.4h-3.3V87.5z
				 M78.2,82.4h-2.4v-4h2.4c0.4,0,0.8,0.1,1.1,0.3c0.3,0.2,0.5,0.4,0.7,0.7c0.2,0.3,0.3,0.6,0.3,1s-0.1,0.7-0.3,1
				c-0.2,0.3-0.4,0.6-0.7,0.7C79,82.3,78.6,82.4,78.2,82.4z M76.1,82.2h2.1c0.4,0,0.7-0.1,0.9-0.3c0.3-0.2,0.5-0.4,0.6-0.7
				C80,81,80,80.7,80,80.4s-0.1-0.6-0.2-0.8c-0.2-0.3-0.4-0.5-0.6-0.7c-0.3-0.2-0.6-0.3-0.9-0.3h-2.1V82.2z"/>
		</g>
		<g>
			<path class="st9" d="M83.8,87.5c-0.4-0.2-0.7-0.5-1-0.9c-0.2-0.4-0.3-0.8-0.3-1.3c0-0.8,0.3-1.4,0.9-1.8s1.3-0.7,2.2-0.7
				c0.4,0,0.8,0,1.2,0.1c0.4,0.1,0.7,0.2,0.9,0.3V83c0-0.5-0.2-1-0.6-1.3s-0.9-0.5-1.4-0.5c-0.4,0-0.8,0.1-1.1,0.3
				c-0.3,0.2-0.6,0.4-0.8,0.7l-0.9-0.7c0.3-0.4,0.7-0.8,1.2-1c0.5-0.2,1.1-0.4,1.7-0.4c1,0,1.8,0.3,2.3,0.8c0.6,0.5,0.9,1.2,0.9,2.1
				v4.6h-1.2v-1h-0.1c-0.2,0.4-0.5,0.7-0.9,0.9c-0.4,0.2-0.9,0.4-1.4,0.4C84.7,87.8,84.3,87.7,83.8,87.5z M86.5,86.5
				c0.4-0.2,0.6-0.5,0.8-0.8c0.2-0.4,0.3-0.7,0.3-1.2c-0.2-0.2-0.5-0.3-0.8-0.4c-0.3-0.1-0.7-0.1-1.1-0.1c-0.7,0-1.2,0.1-1.5,0.4
				c-0.3,0.3-0.5,0.6-0.5,1.1c0,0.4,0.2,0.7,0.5,1c0.3,0.2,0.7,0.4,1.2,0.4C85.8,86.8,86.2,86.7,86.5,86.5z"/>
			<path class="st9" d="M85.3,88c-0.6,0-1.1-0.1-1.5-0.3l0,0c-0.4-0.2-0.8-0.5-1-0.9c-0.2-0.4-0.4-0.8-0.4-1.3
				c0-0.8,0.3-1.5,0.9-1.9c0.6-0.4,1.4-0.7,2.3-0.7c0.4,0,0.9,0,1.3,0.1c0.3,0.1,0.5,0.2,0.7,0.2V83c0-0.5-0.2-0.9-0.5-1.2
				c-0.4-0.3-0.8-0.5-1.4-0.5c-0.4,0-0.7,0.1-1.1,0.3c-0.3,0.2-0.6,0.4-0.8,0.7l-0.1,0.1l-1.1-0.8l0.1-0.1c0.3-0.5,0.7-0.8,1.2-1.1
				c0.5-0.3,1.1-0.4,1.7-0.4c1,0,1.8,0.3,2.4,0.8c0.6,0.5,0.9,1.3,0.9,2.2v4.7h-1.4v-0.9c-0.2,0.3-0.5,0.5-0.8,0.7
				C86.3,87.8,85.8,88,85.3,88z M85.6,83.1c-0.9,0-1.6,0.2-2.1,0.6c-0.6,0.4-0.8,1-0.8,1.7c0,0.4,0.1,0.8,0.3,1.2
				c0.2,0.3,0.5,0.6,0.9,0.8v0c0.4,0.2,0.9,0.3,1.4,0.3c0.5,0,1-0.1,1.4-0.4c0.4-0.2,0.7-0.5,0.9-0.9l0-0.1h0.3v1h0.9V83
				c0-0.9-0.3-1.5-0.8-2c-0.5-0.5-1.3-0.7-2.3-0.7c-0.6,0-1.1,0.1-1.6,0.4c-0.4,0.2-0.8,0.5-1.1,0.9l0.7,0.5
				c0.2-0.3,0.5-0.5,0.8-0.7c0.4-0.2,0.8-0.3,1.2-0.3c0.6,0,1.1,0.2,1.5,0.5c0.4,0.4,0.6,0.8,0.6,1.4v0.7l-0.2-0.1
				c-0.2-0.1-0.5-0.2-0.8-0.3C86.4,83.1,86,83.1,85.6,83.1z M85.4,86.9c-0.5,0-0.9-0.1-1.2-0.4c-0.3-0.3-0.5-0.6-0.5-1.1
				c0-0.5,0.2-0.9,0.6-1.2c0.4-0.3,0.9-0.4,1.6-0.4c0.4,0,0.7,0,1.1,0.1c0.3,0.1,0.6,0.2,0.9,0.4l0.1,0v0.1c0,0.4-0.1,0.9-0.3,1.2
				c-0.2,0.4-0.5,0.7-0.9,0.9l0,0C86.2,86.8,85.8,86.9,85.4,86.9z M85.8,84.1c-0.6,0-1.1,0.1-1.4,0.4c-0.3,0.3-0.5,0.6-0.5,1
				c0,0.4,0.1,0.7,0.4,0.9c0.3,0.2,0.6,0.3,1.1,0.3c0.4,0,0.7-0.1,1.1-0.3c0.3-0.2,0.6-0.5,0.8-0.8c0.2-0.3,0.3-0.7,0.3-1
				c-0.2-0.1-0.5-0.2-0.8-0.3C86.5,84.1,86.1,84.1,85.8,84.1z"/>
		</g>
		<g>
			<path class="st9" d="M90.3,80.4h1.2v1.2h0.1c0.2-0.4,0.5-0.8,0.9-1s0.9-0.4,1.3-0.4c0.2,0,0.4,0,0.5,0v1.2
				c-0.2,0-0.4-0.1-0.7-0.1c-0.6,0-1.1,0.2-1.5,0.6c-0.4,0.4-0.6,0.9-0.6,1.6v4h-1.2V80.4z M97.7,87.7c-0.3-0.1-0.5-0.2-0.6-0.4
				c-0.2-0.2-0.3-0.4-0.4-0.6c-0.1-0.2-0.1-0.5-0.1-0.9v-4.4h-1.3v-1.1h1.3v-2.1h1.2v2.1h1.8v1.1h-1.8v4.1c0,0.4,0.1,0.7,0.2,0.9
				c0.2,0.2,0.4,0.3,0.8,0.3c0.3,0,0.5-0.1,0.8-0.2v1.2c-0.1,0.1-0.3,0.1-0.4,0.1c-0.1,0-0.3,0-0.6,0C98.3,87.8,98,87.8,97.7,87.7z"
				/>
			<path class="st9" d="M98.6,88c-0.3,0-0.6-0.1-0.9-0.2c-0.3-0.1-0.5-0.2-0.7-0.4c-0.2-0.2-0.4-0.4-0.5-0.7
				c-0.1-0.3-0.2-0.6-0.2-0.9v-4.2h-1.3v-1.4h1.3v-2.1h1.5v2.1h1.8v1.4h-1.8v3.9c0,0.4,0.1,0.7,0.2,0.8c0.2,0.2,0.4,0.3,0.7,0.3
				c0.3,0,0.5-0.1,0.7-0.2l0.2-0.1v1.5l-0.1,0c-0.2,0.1-0.3,0.1-0.5,0.2C99,88,98.8,88,98.6,88z M95.4,81.3h1.3v4.5
				c0,0.3,0,0.6,0.1,0.8s0.2,0.4,0.4,0.6c0.2,0.2,0.4,0.3,0.6,0.4c0.2,0.1,0.5,0.1,0.8,0.1c0.2,0,0.4,0,0.5,0c0.1,0,0.2-0.1,0.3-0.1
				v-0.9c-0.2,0.1-0.4,0.2-0.7,0.2c-0.4,0-0.7-0.1-0.9-0.4c-0.2-0.2-0.3-0.5-0.3-1v-4.2h1.8v-0.9h-1.8v-2.1h-1v2.1h-1.3V81.3z
				 M91.7,87.9h-1.5v-7.5h1.4v0.9c0.2-0.3,0.4-0.5,0.7-0.7c0.4-0.2,0.9-0.4,1.4-0.4c0.2,0,0.4,0,0.6,0l0.1,0v1.5l-0.2,0
				c-0.2,0-0.4-0.1-0.6-0.1c-0.6,0-1.1,0.2-1.4,0.6c-0.4,0.4-0.5,0.9-0.5,1.5V87.9z M90.5,87.6h1v-3.9c0-0.7,0.2-1.3,0.6-1.7
				c0.4-0.4,0.9-0.7,1.6-0.7c0.2,0,0.4,0,0.5,0v-1c-0.1,0-0.3,0-0.4,0c-0.5,0-0.9,0.1-1.3,0.3c-0.4,0.2-0.7,0.5-0.8,0.9l0,0.1h-0.3
				v-1.2h-0.9V87.6z"/>
		</g>
		<g>
			<path class="st9" d="M100.9,80.3h1.2v1.1h0.1c0.2-0.4,0.5-0.7,1-0.9c0.4-0.3,0.9-0.4,1.4-0.4c0.9,0,1.5,0.3,2,0.8
				c0.5,0.5,0.7,1.2,0.7,2.1v4.7H106v-4.5c0-0.7-0.2-1.2-0.5-1.5c-0.3-0.3-0.8-0.5-1.3-0.5c-0.4,0-0.7,0.1-1.1,0.3
				c-0.3,0.2-0.6,0.5-0.7,0.9c-0.2,0.4-0.3,0.7-0.3,1.1v4.1h-1.2V80.3z"/>
			<path class="st9" d="M107.3,87.7h-1.5v-4.6c0-0.6-0.2-1.1-0.4-1.4c-0.3-0.3-0.7-0.4-1.2-0.4c-0.4,0-0.7,0.1-1,0.3
				c-0.3,0.2-0.5,0.5-0.7,0.8c-0.2,0.3-0.2,0.7-0.2,1.1v4.2h-1.5v-7.5h1.4v0.9c0.2-0.3,0.5-0.5,0.8-0.7c0.5-0.3,0.9-0.4,1.5-0.4
				c0.9,0,1.6,0.3,2.1,0.8c0.5,0.5,0.7,1.3,0.7,2.2V87.7z M106.1,87.5h1v-4.6c0-0.8-0.2-1.5-0.7-2c-0.4-0.5-1.1-0.7-1.9-0.7
				c-0.5,0-0.9,0.1-1.3,0.4c-0.4,0.2-0.7,0.5-0.9,0.9l0,0.1h-0.3v-1.1H101v7h1v-4c0-0.4,0.1-0.8,0.3-1.2c0.2-0.4,0.4-0.7,0.8-0.9
				c0.3-0.2,0.7-0.4,1.1-0.4c0.6,0,1.1,0.2,1.4,0.5c0.3,0.3,0.5,0.9,0.5,1.6V87.5z"/>
		</g>
		<g>
			<path class="st9" d="M110.3,87.3c-0.6-0.3-1-0.8-1.3-1.4c-0.3-0.6-0.5-1.2-0.5-2c0-0.7,0.1-1.4,0.4-1.9c0.3-0.6,0.7-1.1,1.2-1.4
				s1.2-0.5,1.9-0.5c0.7,0,1.3,0.2,1.9,0.5s0.9,0.8,1.2,1.3c0.3,0.6,0.4,1.2,0.4,1.9c0,0.1,0,0.3,0,0.4h-5.8c0,0.6,0.2,1,0.4,1.4
				c0.2,0.4,0.5,0.7,0.9,0.9c0.4,0.2,0.8,0.3,1.2,0.3c0.9,0,1.7-0.4,2.2-1.3l1,0.5c-0.3,0.6-0.7,1.1-1.3,1.4c-0.5,0.3-1.2,0.5-2,0.5
				C111.5,87.8,110.8,87.7,110.3,87.3z M114.3,83.2c0-0.3-0.1-0.6-0.3-0.9c-0.2-0.3-0.4-0.6-0.7-0.8c-0.3-0.2-0.7-0.3-1.2-0.3
				c-0.6,0-1.1,0.2-1.5,0.5c-0.4,0.4-0.7,0.9-0.8,1.5H114.3z"/>
			<path class="st9" d="M112.2,88c-0.7,0-1.4-0.2-1.9-0.5l0,0c-0.6-0.3-1-0.8-1.3-1.4s-0.5-1.3-0.5-2c0-0.7,0.2-1.4,0.4-2
				c0.3-0.6,0.7-1.1,1.3-1.5c0.6-0.4,1.2-0.5,1.9-0.5c0.7,0,1.4,0.2,1.9,0.5c0.5,0.3,1,0.8,1.3,1.4c0.3,0.6,0.4,1.2,0.4,2
				c0,0.2,0,0.3,0,0.4l0,0.1h-5.7c0,0.5,0.2,0.9,0.4,1.2c0.2,0.4,0.5,0.6,0.9,0.8c0.3,0.2,0.7,0.3,1.1,0.3c0.9,0,1.6-0.4,2.1-1.3
				l0.1-0.1l1.3,0.6l-0.1,0.1c-0.3,0.6-0.8,1.1-1.3,1.4C113.6,87.8,113,88,112.2,88z M110.4,87.2c0.5,0.3,1.1,0.5,1.8,0.5
				c0.7,0,1.4-0.2,1.9-0.5c0.5-0.3,0.9-0.7,1.2-1.2l-0.8-0.4c-0.5,0.8-1.3,1.3-2.2,1.3c-0.4,0-0.8-0.1-1.2-0.3
				c-0.4-0.2-0.7-0.5-1-0.9c-0.2-0.4-0.4-0.9-0.4-1.5l0-0.1h5.8c0-0.1,0-0.2,0-0.2c0-0.7-0.1-1.3-0.4-1.9c-0.3-0.5-0.7-1-1.2-1.3
				c-0.5-0.3-1.1-0.5-1.8-0.5c-0.7,0-1.3,0.2-1.8,0.5c-0.5,0.3-0.9,0.8-1.2,1.4c-0.3,0.6-0.4,1.2-0.4,1.9c0,0.7,0.2,1.4,0.5,1.9
				C109.4,86.5,109.8,86.9,110.4,87.2L110.4,87.2z M114.4,83.3h-4.7l0-0.2c0.1-0.6,0.4-1.1,0.8-1.5c0.4-0.4,0.9-0.6,1.5-0.6
				c0.5,0,1,0.1,1.3,0.3c0.3,0.2,0.6,0.5,0.8,0.8c0.2,0.3,0.3,0.6,0.3,1L114.4,83.3z M110,83.1h4.2c0-0.2-0.1-0.5-0.2-0.7
				c-0.1-0.3-0.4-0.5-0.7-0.7c-0.3-0.2-0.7-0.3-1.2-0.3c-0.5,0-1,0.2-1.4,0.5C110.3,82.2,110.1,82.6,110,83.1z"/>
		</g>
		<g>
			<path class="st9" d="M117,80.3h1.2v1.2h0.1c0.1-0.4,0.4-0.7,0.8-1c0.4-0.3,0.8-0.4,1.3-0.4c0.3,0,0.6,0.1,0.9,0.2v1.3
				c-0.3-0.2-0.6-0.2-1-0.2c-0.4,0-0.7,0.1-1,0.3c-0.3,0.2-0.5,0.5-0.7,0.8c-0.2,0.3-0.3,0.7-0.3,1.1v4.1H117V80.3z"/>
			<path class="st9" d="M118.3,87.7h-1.5v-7.5h1.4v0.9c0.2-0.3,0.4-0.5,0.7-0.7c0.4-0.3,0.9-0.4,1.4-0.4c0.3,0,0.7,0.1,0.9,0.2
				l0.1,0v1.6l-0.2-0.1c-0.3-0.1-0.6-0.2-1-0.2c-0.3,0-0.6,0.1-0.9,0.3c-0.3,0.2-0.5,0.4-0.7,0.8c-0.2,0.3-0.3,0.7-0.3,1V87.7z
				 M117.1,87.5h1v-4c0-0.4,0.1-0.8,0.3-1.2c0.2-0.4,0.4-0.6,0.7-0.9c0.3-0.2,0.7-0.3,1-0.3c0.3,0,0.6,0.1,0.9,0.2v-1
				c-0.2-0.1-0.5-0.1-0.7-0.1c-0.4,0-0.8,0.1-1.2,0.4c-0.4,0.3-0.6,0.6-0.8,0.9l0,0.1H118v-1.2h-0.9V87.5z"/>
		</g>
	</g>
	<g>
		<path class="st0" d="M35.5,117.9h2.9c0.5,0,0.9,0.1,1.3,0.3s0.7,0.5,1,0.9c0.2,0.4,0.4,0.8,0.4,1.3c0,0.5-0.1,0.9-0.4,1.3
			c-0.2,0.4-0.6,0.7-1,0.9c-0.4,0.2-0.9,0.3-1.3,0.3h-1.6v3.2h-1.3V117.9z M38.3,121.7c0.3,0,0.5-0.1,0.7-0.2
			c0.2-0.1,0.4-0.3,0.5-0.5s0.2-0.4,0.2-0.6c0-0.2-0.1-0.4-0.2-0.6c-0.1-0.2-0.3-0.4-0.5-0.5s-0.5-0.2-0.7-0.2h-1.6v2.6H38.3z"/>
		<path class="st0" d="M42.1,117.9H45c0.5,0,0.9,0.1,1.3,0.3s0.7,0.5,1,0.9c0.2,0.4,0.4,0.8,0.4,1.3c0,0.6-0.2,1-0.5,1.5
			c-0.4,0.4-0.8,0.7-1.3,0.9l0,0.1l2.3,3.3v0.1h-1.5l-2.2-3.2h-1v3.2h-1.3V117.9z M44.9,121.7c0.4,0,0.7-0.1,1-0.4
			c0.3-0.2,0.4-0.6,0.4-0.9c0-0.2-0.1-0.4-0.2-0.6s-0.3-0.4-0.5-0.5c-0.2-0.1-0.4-0.2-0.7-0.2h-1.6v2.6H44.9z"/>
		<path class="st0" d="M48.9,117.9h5v1.2h-3.7v2.3h3.3v1.2h-3.3v2.3h3.7v1.2h-5V117.9z"/>
		<path class="st0" d="M55.3,117.9H57l2.4,6.2h0.1l2.4-6.2h1.7v8.2h-1.3v-4.6l0.1-1.5h-0.1l-2.4,6.1h-1l-2.4-6.1h-0.1l0.1,1.5v4.6
			h-1.3V117.9z"/>
		<path class="st0" d="M65.2,117.9h1.3v8.2h-1.3V117.9z"/>
		<path class="st0" d="M68.2,117.9h5v1.2h-3.7v2.3h3.3v1.2h-3.3v2.3h3.7v1.2h-5V117.9z"/>
		<path class="st0" d="M74.5,117.9h2.9c0.5,0,0.9,0.1,1.3,0.3s0.7,0.5,1,0.9c0.2,0.4,0.3,0.8,0.3,1.3c0,0.6-0.2,1-0.5,1.5
			c-0.4,0.4-0.8,0.7-1.3,0.9l0,0.1l2.3,3.3v0.1h-1.5l-2.2-3.2h-1v3.2h-1.3V117.9z M77.4,121.7c0.4,0,0.7-0.1,1-0.4
			c0.3-0.2,0.4-0.6,0.4-0.9c0-0.2-0.1-0.4-0.2-0.6s-0.3-0.4-0.5-0.5c-0.2-0.1-0.4-0.2-0.7-0.2h-1.6v2.6H77.4z"/>
		<path class="st0" d="M83.4,125c0.2-0.2,0.7-0.7,1.4-1.5s1.2-1.2,1.4-1.5c0.3-0.3,0.5-0.6,0.7-0.8s0.2-0.5,0.2-0.8
			s-0.1-0.6-0.3-0.8c-0.2-0.2-0.5-0.3-0.9-0.3c-0.4,0-0.7,0.1-0.9,0.3c-0.2,0.2-0.4,0.5-0.4,0.7l-1.1-0.5c0.1-0.3,0.2-0.5,0.4-0.8
			s0.5-0.5,0.8-0.7c0.4-0.2,0.8-0.3,1.2-0.3c0.5,0,0.9,0.1,1.3,0.3c0.4,0.2,0.7,0.5,0.9,0.8s0.3,0.7,0.3,1.2c0,0.5-0.1,0.9-0.4,1.3
			c-0.2,0.4-0.5,0.8-0.9,1.2c-0.2,0.1-0.5,0.5-1.2,1.2l-0.9,0.9l0,0h3.4v1.2h-5.1V125z"/>
		<path class="st0" d="M91,125.8c-0.5-0.4-0.9-0.9-1.1-1.5s-0.4-1.3-0.4-2.1c0-0.8,0.1-1.5,0.4-2.1c0.3-0.6,0.6-1.1,1.1-1.5
			s1.1-0.5,1.7-0.5c0.6,0,1.2,0.2,1.7,0.5c0.5,0.4,0.9,0.9,1.1,1.5c0.3,0.6,0.4,1.3,0.4,2.1c0,0.8-0.1,1.5-0.4,2.1s-0.6,1.1-1.1,1.5
			c-0.5,0.4-1.1,0.5-1.7,0.5C92,126.3,91.5,126.2,91,125.8z M93.7,124.8c0.3-0.3,0.5-0.6,0.7-1c0.2-0.4,0.2-0.9,0.2-1.5
			c0-0.6-0.1-1.1-0.2-1.5c-0.2-0.4-0.4-0.8-0.7-1c-0.3-0.3-0.6-0.4-1-0.4c-0.4,0-0.7,0.1-1,0.4s-0.5,0.6-0.7,1s-0.2,0.9-0.2,1.5
			c0,0.6,0.1,1,0.2,1.5c0.2,0.4,0.4,0.8,0.7,1s0.6,0.4,1,0.4C93.1,125.1,93.4,125,93.7,124.8z"/>
		<path class="st0" d="M96.7,125c0.2-0.2,0.7-0.7,1.4-1.5s1.2-1.2,1.4-1.5c0.3-0.3,0.5-0.6,0.7-0.8s0.2-0.5,0.2-0.8
			s-0.1-0.6-0.3-0.8c-0.2-0.2-0.5-0.3-0.9-0.3c-0.4,0-0.7,0.1-0.9,0.3c-0.2,0.2-0.4,0.5-0.4,0.7l-1.1-0.5c0.1-0.3,0.2-0.5,0.4-0.8
			s0.5-0.5,0.8-0.7c0.4-0.2,0.8-0.3,1.2-0.3c0.5,0,0.9,0.1,1.3,0.3c0.4,0.2,0.7,0.5,0.9,0.8s0.3,0.7,0.3,1.2c0,0.5-0.1,0.9-0.4,1.3
			c-0.2,0.4-0.5,0.8-0.9,1.2c-0.2,0.1-0.5,0.5-1.2,1.2l-0.9,0.9l0,0h3.4v1.2h-5.1V125z"/>
		<path class="st0" d="M102.7,125c0.2-0.2,0.7-0.7,1.4-1.5s1.2-1.2,1.4-1.5c0.3-0.3,0.5-0.6,0.7-0.8s0.2-0.5,0.2-0.8
			s-0.1-0.6-0.3-0.8c-0.2-0.2-0.5-0.3-0.9-0.3c-0.4,0-0.7,0.1-0.9,0.3c-0.2,0.2-0.4,0.5-0.4,0.7l-1.1-0.5c0.1-0.3,0.2-0.5,0.4-0.8
			s0.5-0.5,0.8-0.7c0.4-0.2,0.8-0.3,1.2-0.3c0.5,0,0.9,0.1,1.3,0.3c0.4,0.2,0.7,0.5,0.9,0.8s0.3,0.7,0.3,1.2c0,0.5-0.1,0.9-0.4,1.3
			c-0.2,0.4-0.5,0.8-0.9,1.2c-0.2,0.1-0.5,0.5-1.2,1.2l-0.9,0.9l0,0h3.4v1.2h-5.1V125z"/>
	</g>
</g>
</svg>
